<svg width="111" height="100" viewBox="0 0 111 100" fill="none" xmlns="http://www.w3.org/2000/svg">
<path d="M95.2276 24.4439L87.8708 75.555M25.3357 24.4444L16.1393 75.5556M86.4 14.2222H34.9M76.1 85.7778H24.6M22.54 24.4444H26.66C29.5443 24.4444 30.9864 24.4444 32.088 23.8874C33.0571 23.3973 33.8449 22.6154 34.3387 21.6537C34.9 20.5604 34.9 19.1291 34.9 16.2667V12.1778C34.9 9.3153 34.9 7.88404 34.3387 6.79072C33.8449 5.82901 33.0571 5.04711 32.088 4.55706C30.9864 4 29.5443 4 26.66 4H22.54C19.6557 4 18.2136 4 17.112 4.55706C16.1429 5.04711 15.3551 5.82901 14.8613 6.79072C14.3 7.88404 14.3 9.3153 14.3 12.1778V16.2667C14.3 19.1291 14.3 20.5604 14.8613 21.6537C15.3551 22.6154 16.1429 23.3973 17.112 23.8874C18.2136 24.4444 19.6557 24.4444 22.54 24.4444ZM12.24 96H16.36C19.2443 96 20.6864 96 21.788 95.4429C22.7571 94.9527 23.5449 94.1712 24.0387 93.2093C24.6 92.1161 24.6 90.685 24.6 87.8222V83.7333C24.6 80.8706 24.6 79.4395 24.0387 78.3462C23.5449 77.3843 22.7571 76.6028 21.788 76.1127C20.6864 75.5556 19.2443 75.5556 16.36 75.5556H12.24C9.35574 75.5556 7.91359 75.5556 6.81195 76.1127C5.84293 76.6028 5.05508 77.3843 4.5613 78.3462C4 79.4395 4 80.8706 4 83.7333V87.8222C4 90.685 4 92.1161 4.5613 93.2093C5.05508 94.1712 5.84293 94.9527 6.81195 95.4429C7.91359 96 9.35574 96 12.24 96ZM94.64 24.4444H98.76C101.645 24.4444 103.087 24.4444 104.188 23.8874C105.157 23.3973 105.945 22.6154 106.439 21.6537C107 20.5604 107 19.1291 107 16.2667V12.1778C107 9.3153 107 7.88404 106.439 6.79072C105.945 5.82901 105.157 5.04711 104.188 4.55706C103.087 4 101.645 4 98.76 4H94.64C91.7555 4 90.3135 4 89.2119 4.55706C88.2427 5.04711 87.4552 5.82901 86.9613 6.79072C86.4 7.88404 86.4 9.3153 86.4 12.1778V16.2667C86.4 19.1291 86.4 20.5604 86.9613 21.6537C87.4552 22.6154 88.2427 23.3973 89.2119 23.8874C90.3135 24.4444 91.7555 24.4444 94.64 24.4444ZM84.34 96H88.46C91.3445 96 92.7865 96 93.8881 95.4429C94.8573 94.9527 95.6448 94.1712 96.1387 93.2093C96.7 92.1161 96.7 90.685 96.7 87.8222V83.7333C96.7 80.8706 96.7 79.4395 96.1387 78.3462C95.6448 77.3843 94.8573 76.6028 93.8881 76.1127C92.7865 75.5556 91.3445 75.5556 88.46 75.5556H84.34C81.4555 75.5556 80.0135 75.5556 78.9119 76.1127C77.9427 76.6028 77.1552 77.3843 76.6613 78.3462C76.1 79.4395 76.1 80.8706 76.1 83.7333V87.8222C76.1 90.685 76.1 92.1161 76.6613 93.2093C77.1552 94.1712 77.9427 94.9527 78.9119 95.4429C80.0135 96 81.4555 96 84.34 96Z" stroke="#6F6F6F" stroke-width="8" stroke-linecap="round" stroke-linejoin="round"/>
</svg>
