<svg width="153" height="96" viewBox="0 0 153 96" fill="none" xmlns="http://www.w3.org/2000/svg">
<path d="M21.1351 85.3911C22.4486 85.3911 23.7024 85.3611 24.8964 85.3011C26.0905 85.2412 27.0458 85.1513 27.7622 85.0314V74.872C27.2249 74.7521 26.4189 74.6323 25.3442 74.5124C24.2695 74.3925 23.2844 74.3326 22.3889 74.3326C21.1351 74.3326 19.941 74.4225 18.8067 74.6023C17.732 74.7222 16.7767 74.9919 15.9409 75.4114C15.105 75.831 14.4483 76.4004 13.9707 77.1197C13.493 77.8389 13.2542 78.738 13.2542 79.8169C13.2542 81.9147 13.9408 83.3831 15.314 84.2223C16.7469 85.0014 18.6873 85.3911 21.1351 85.3911ZM20.0604 46.1919C24.0009 46.1919 27.2846 46.6414 29.9115 47.5405C32.5385 48.4395 34.6281 49.7282 36.1804 51.4064C37.7924 53.0847 38.9268 55.1226 39.5835 57.5201C40.2403 59.9176 40.5686 62.5848 40.5686 65.5217V93.3927C38.6581 93.8123 36.0013 94.2918 32.5982 94.8312C29.1951 95.4306 25.0755 95.7303 20.2395 95.7303C17.1947 95.7303 14.4184 95.4606 11.9109 94.9211C9.46303 94.3817 7.34355 93.5126 5.55244 92.3138C3.76133 91.0551 2.38815 89.4368 1.43289 87.4589C0.47763 85.4809 0 83.0535 0 80.1765C0 77.4193 0.537333 75.0818 1.612 73.1638C2.74637 71.2458 4.23896 69.7174 6.08978 68.5786C7.94059 67.4398 10.0601 66.6306 12.4482 66.1511C14.8364 65.6116 17.3141 65.3419 19.8813 65.3419C21.6127 65.3419 23.1352 65.4318 24.4487 65.6117C25.8218 65.7315 26.9264 65.9113 27.7622 66.1511V64.8924C27.7622 62.6148 27.0756 60.7867 25.7024 59.4081C24.3293 58.0295 21.9411 57.3403 18.538 57.3403C16.2693 57.3403 14.0304 57.5201 11.8213 57.8797C9.61229 58.1794 7.70178 58.6289 6.08978 59.2283L4.38822 48.4395C5.16437 48.1998 6.11963 47.96 7.254 47.7203C8.44807 47.4206 9.7317 47.1809 11.1049 47.001C12.4781 46.7613 13.911 46.5815 15.4036 46.4616C16.9558 46.2818 18.5081 46.1919 20.0604 46.1919Z" fill="#6F6F6F"/>
<path d="M114.939 71.0959C114.939 67.6795 115.476 64.4728 116.551 61.476C117.685 58.4191 119.297 55.7819 121.387 53.5642C123.477 51.2866 126.014 49.4884 128.999 48.1698C131.984 46.8512 135.387 46.1919 139.208 46.1919C141.716 46.1919 144.015 46.4316 146.104 46.9111C148.194 47.3307 150.224 47.96 152.194 48.7992L149.418 59.498C148.164 59.0185 146.791 58.599 145.298 58.2393C143.806 57.8797 142.134 57.6999 140.283 57.6999C136.343 57.6999 133.387 58.9286 131.417 61.3861C129.507 63.8435 128.551 67.0801 128.551 71.0959C128.551 75.3515 129.447 78.6481 131.238 80.9856C133.089 83.3232 136.283 84.492 140.82 84.492C142.432 84.492 144.164 84.3421 146.015 84.0424C147.865 83.7428 149.567 83.2633 151.119 82.604L153 93.5725C151.448 94.2318 149.507 94.8012 147.179 95.2807C144.85 95.7602 142.283 96 139.477 96C135.178 96 131.477 95.3707 128.372 94.112C125.268 92.7933 122.7 91.0252 120.67 88.8075C118.7 86.5898 117.238 83.9825 116.282 80.9856C115.387 77.9288 114.939 74.6323 114.939 71.0959Z" fill="#6F6F6F"/>
<path d="M85.7011 45.7623C85.7011 37.1313 82.5368 32.8158 76.2082 32.8158C74.8351 32.8158 73.4619 32.9956 72.0887 33.3553C70.7752 33.7149 69.7005 34.1644 68.8647 34.7038V59.0685C69.5214 59.1883 70.3573 59.3082 71.3722 59.4281C72.3872 59.488 73.4917 59.518 74.6858 59.518C78.3277 59.518 81.0741 58.2593 82.9249 55.7419C84.7757 53.2246 85.7011 49.898 85.7011 45.7623ZM99.3136 46.122C99.3136 49.898 98.7464 53.3145 97.612 56.3713C96.5373 59.4281 94.9552 62.0354 92.8656 64.1931C90.7759 66.3509 88.2087 68.0291 85.1638 69.2279C82.1189 70.3667 78.6561 70.9361 74.7754 70.9361C73.1634 70.9361 71.4618 70.8462 69.6707 70.6664C67.9393 70.5465 66.2079 70.3667 64.4765 70.1269C62.8048 69.8872 61.1928 69.6175 59.6405 69.3178C58.0882 68.9582 56.715 68.5985 55.5209 68.2389V2.15775L68.8647 0V23.5555C70.3573 22.8961 71.9096 22.3867 73.5216 22.0271C75.1336 21.6674 76.865 21.4876 78.7158 21.4876C82.0592 21.4876 85.0145 22.087 87.5818 23.2857C90.1491 24.4246 92.2984 26.0728 94.0298 28.2306C95.7612 30.3883 97.0747 32.9956 97.9702 36.0524C98.8658 39.0493 99.3136 42.4058 99.3136 46.122Z" fill="#6F6F6F"/>
</svg>
