<svg width="164" height="96" viewBox="0 0 164 96" fill="none" xmlns="http://www.w3.org/2000/svg">
<path d="M0 41.9521C1.83907 41.1854 3.74155 40.323 5.70745 39.3647C7.73677 38.3425 9.70266 37.2564 11.6051 36.1065C13.5076 34.8926 15.315 33.6469 17.0272 32.3691C18.8029 31.0275 20.3883 29.622 21.7834 28.1526H31.6763V94.5626H17.5028V46.7436C15.6004 48.0213 13.4759 49.2032 11.1295 50.2893C8.78313 51.3114 6.50015 52.2059 4.28059 52.9725L0 41.9521Z" fill="#6F6F6F"/>
<path d="M137.651 96C135.938 96 134.131 95.8722 132.229 95.6167C130.326 95.425 128.487 95.1375 126.711 94.7542C124.936 94.3709 123.319 93.9556 121.86 93.5084C120.401 93.0612 119.26 92.646 118.436 92.2626L121.194 80.3798C122.843 81.0825 124.936 81.8492 127.472 82.6797C130.072 83.4463 133.275 83.8296 137.08 83.8296C141.456 83.8296 144.658 82.9991 146.687 81.3381C148.717 79.677 149.731 77.441 149.731 74.63C149.731 72.9051 149.351 71.4676 148.59 70.3176C147.892 69.1038 146.909 68.1455 145.641 67.4428C144.373 66.6761 142.851 66.165 141.075 65.9095C139.363 65.5901 137.524 65.4303 135.558 65.4303H130.041V53.9308H136.319C137.714 53.9308 139.046 53.803 140.314 53.5475C141.646 53.2919 142.819 52.8767 143.834 52.3017C144.848 51.6628 145.641 50.8323 146.212 49.8101C146.846 48.724 147.163 47.3824 147.163 45.7853C147.163 44.5714 146.909 43.5173 146.402 42.6229C145.895 41.7285 145.229 40.9938 144.404 40.4188C143.643 39.8438 142.724 39.4286 141.646 39.173C140.631 38.8536 139.585 38.6939 138.507 38.6939C135.78 38.6939 133.243 39.1091 130.897 39.9397C128.614 40.7702 126.521 41.7924 124.619 43.0062L119.577 32.5608C120.592 31.9219 121.765 31.2511 123.097 30.5484C124.492 29.8456 126.014 29.2067 127.663 28.6318C129.311 28.0568 131.055 27.5776 132.894 27.1943C134.797 26.811 136.794 26.6193 138.887 26.6193C142.756 26.6193 146.085 27.0985 148.875 28.0568C151.729 28.9512 154.075 30.2609 155.914 31.9858C157.754 33.6468 159.117 35.6273 160.005 37.9272C160.893 40.1633 161.337 42.6229 161.337 45.3061C161.337 47.9255 160.607 50.4809 159.149 52.9725C157.69 55.4002 155.724 57.2529 153.251 58.5306C156.675 59.9361 159.307 62.0444 161.146 64.8554C163.049 67.6025 164 70.9246 164 74.8216C164 77.8882 163.493 80.7311 162.478 83.3505C161.463 85.9059 159.878 88.142 157.722 90.0586C155.566 91.9113 152.807 93.3807 149.446 94.4667C146.148 95.4889 142.217 96 137.651 96Z" fill="#6F6F6F"/>
<path d="M101.833 18.9743C101.833 21.402 101.358 23.7338 100.407 25.9698C99.4553 28.2059 98.2187 30.378 96.6967 32.4862C95.1747 34.5306 93.4625 36.5111 91.56 38.4277C89.6575 40.3443 87.7867 42.165 85.9477 43.89C84.9964 44.7844 83.95 45.8066 82.8086 46.9565C81.7305 48.0426 80.6841 49.1606 79.6695 50.3106C78.6548 51.4605 77.7353 52.5466 76.9109 53.5688C76.1499 54.5271 75.6742 55.3256 75.484 55.9645H103.831V67.9432H59.8836C59.7568 67.2405 59.6934 66.3461 59.6934 65.26C59.6934 64.1739 59.6934 63.4073 59.6934 62.9601C59.6934 59.8935 60.169 57.0825 61.1202 54.5271C62.1349 51.9716 63.4349 49.6078 65.0203 47.4357C66.6057 45.1996 68.3814 43.1233 70.3473 41.2067C72.3766 39.2902 74.3742 37.3736 76.3401 35.457C77.8621 33.9876 79.289 32.614 80.6207 31.3363C81.9524 29.9947 83.1256 28.7169 84.1403 27.5031C85.1549 26.2254 85.9477 24.9796 86.5184 23.7658C87.0891 22.488 87.3745 21.2103 87.3745 19.9326C87.3745 17.1216 86.5818 15.1411 84.9964 13.9911C83.411 12.8412 81.4451 12.2662 79.0987 12.2662C77.3865 12.2662 75.7694 12.5537 74.2474 13.1287C72.7888 13.6398 71.4254 14.2786 70.157 15.0453C68.9521 15.748 67.9058 16.4827 67.0179 17.2493C66.1301 17.9521 65.4642 18.5271 65.0203 18.9743L57.9811 9.00799C60.7715 6.38865 64.0057 4.24845 67.6838 2.5874C71.4254 0.862467 75.4206 0 79.6695 0C83.5378 0 86.8672 0.447205 89.6575 1.34161C92.4478 2.23602 94.7308 3.51375 96.5064 5.1748C98.3455 6.77196 99.6772 8.75244 100.502 11.1162C101.389 13.4161 101.833 16.0355 101.833 18.9743Z" fill="#6F6F6F"/>
</svg>
