<svg width="100" height="100" viewBox="0 0 100 100" fill="none" xmlns="http://www.w3.org/2000/svg">
<path d="M31.6 4H12.1778C9.3153 4 7.88404 4 6.79072 4.55706C5.82901 5.04711 5.04711 5.82901 4.55706 6.79072C4 7.88404 4 9.3153 4 12.1778V31.6C4 34.4625 4 35.8937 4.55706 36.9871C5.04711 37.9488 5.82901 38.7307 6.79072 39.2207C7.88404 39.7778 9.3153 39.7778 12.1778 39.7778H31.6C34.4625 39.7778 35.8937 39.7778 36.9871 39.2207C37.9488 38.7307 38.7307 37.9488 39.2207 36.9871C39.7778 35.8937 39.7778 34.4625 39.7778 31.6V12.1778C39.7778 9.3153 39.7778 7.88404 39.2207 6.79072C38.7307 5.82901 37.9488 5.04711 36.9871 4.55706C35.8937 4 34.4625 4 31.6 4Z" stroke="#6F6F6F" stroke-width="8" stroke-linecap="round" stroke-linejoin="round"/>
<path d="M87.8222 4H68.4C65.5373 4 64.1062 4 63.0129 4.55706C62.051 5.04711 61.2695 5.82901 60.7793 6.79072C60.2222 7.88404 60.2222 9.3153 60.2222 12.1778V31.6C60.2222 34.4625 60.2222 35.8937 60.7793 36.9871C61.2695 37.9488 62.051 38.7307 63.0129 39.2207C64.1062 39.7778 65.5373 39.7778 68.4 39.7778H87.8222C90.685 39.7778 92.1161 39.7778 93.2093 39.2207C94.1713 38.7307 94.9527 37.9488 95.4429 36.9871C96 35.8937 96 34.4625 96 31.6V12.1778C96 9.3153 96 7.88404 95.4429 6.79072C94.9527 5.82901 94.1713 5.04711 93.2093 4.55706C92.1161 4 90.685 4 87.8222 4Z" stroke="#6F6F6F" stroke-width="8" stroke-linecap="round" stroke-linejoin="round"/>
<path d="M87.8222 60.2222H68.4C65.5373 60.2222 64.1062 60.2222 63.0129 60.7793C62.051 61.2695 61.2695 62.051 60.7793 63.0129C60.2222 64.1062 60.2222 65.5373 60.2222 68.4V87.8222C60.2222 90.685 60.2222 92.1161 60.7793 93.2093C61.2695 94.1713 62.051 94.9527 63.0129 95.4429C64.1062 96 65.5373 96 68.4 96H87.8222C90.685 96 92.1161 96 93.2093 95.4429C94.1713 94.9527 94.9527 94.1713 95.4429 93.2093C96 92.1161 96 90.685 96 87.8222V68.4C96 65.5373 96 64.1062 95.4429 63.0129C94.9527 62.051 94.1713 61.2695 93.2093 60.7793C92.1161 60.2222 90.685 60.2222 87.8222 60.2222Z" stroke="#6F6F6F" stroke-width="8" stroke-linecap="round" stroke-linejoin="round"/>
<path d="M31.6 60.2222H12.1778C9.3153 60.2222 7.88404 60.2222 6.79072 60.7793C5.82901 61.2695 5.04711 62.051 4.55706 63.0129C4 64.1062 4 65.5373 4 68.4V87.8222C4 90.685 4 92.1161 4.55706 93.2093C5.04711 94.1713 5.82901 94.9527 6.79072 95.4429C7.88404 96 9.3153 96 12.1778 96H31.6C34.4625 96 35.8937 96 36.9871 95.4429C37.9488 94.9527 38.7307 94.1713 39.2207 93.2093C39.7778 92.1161 39.7778 90.685 39.7778 87.8222V68.4C39.7778 65.5373 39.7778 64.1062 39.2207 63.0129C38.7307 62.051 37.9488 61.2695 36.9871 60.7793C35.8937 60.2222 34.4625 60.2222 31.6 60.2222Z" stroke="#6F6F6F" stroke-width="8" stroke-linecap="round" stroke-linejoin="round"/>
</svg>
