<svg width="48" height="44" viewBox="0 0 48 44" fill="none" xmlns="http://www.w3.org/2000/svg">
<path d="M40.971 10.8887L37.8283 33.1109M11.1143 10.8889L7.18571 33.1111M37.2 6.44444H15.2M32.8 37.5556H10.8M9.92 10.8889H11.68C12.9121 10.8889 13.5282 10.8889 13.9988 10.6467C14.4127 10.4336 14.7493 10.0937 14.9602 9.67553C15.2 9.20018 15.2 8.57789 15.2 7.33333V5.55556C15.2 4.311 15.2 3.68871 14.9602 3.21336C14.7493 2.79522 14.4127 2.45527 13.9988 2.2422C13.5282 2 12.9121 2 11.68 2H9.92C8.68789 2 8.07182 2 7.60122 2.2422C7.18727 2.45527 6.85071 2.79522 6.63978 3.21336C6.4 3.68871 6.4 4.311 6.4 5.55556V7.33333C6.4 8.57789 6.4 9.20018 6.63978 9.67553C6.85071 10.0937 7.18727 10.4336 7.60122 10.6467C8.07182 10.8889 8.68789 10.8889 9.92 10.8889ZM5.52 42H7.28C8.51211 42 9.12818 42 9.59878 41.7578C10.0127 41.5447 10.3493 41.2049 10.5602 40.7867C10.8 40.3113 10.8 39.6891 10.8 38.4444V36.6667C10.8 35.422 10.8 34.7998 10.5602 34.3244C10.3493 33.9062 10.0127 33.5664 9.59878 33.3533C9.12818 33.1111 8.51211 33.1111 7.28 33.1111H5.52C4.28789 33.1111 3.67182 33.1111 3.20122 33.3533C2.78727 33.5664 2.45071 33.9062 2.23978 34.3244C2 34.7998 2 35.422 2 36.6667V38.4444C2 39.6891 2 40.3113 2.23978 40.7867C2.45071 41.2049 2.78727 41.5447 3.20122 41.7578C3.67182 42 4.28789 42 5.52 42ZM40.72 10.8889H42.48C43.7122 10.8889 44.3282 10.8889 44.7988 10.6467C45.2128 10.4336 45.5492 10.0937 45.7602 9.67553C46 9.20018 46 8.57789 46 7.33333V5.55556C46 4.311 46 3.68871 45.7602 3.21336C45.5492 2.79522 45.2128 2.45527 44.7988 2.2422C44.3282 2 43.7122 2 42.48 2H40.72C39.4878 2 38.8718 2 38.4012 2.2422C37.9872 2.45527 37.6508 2.79522 37.4398 3.21336C37.2 3.68871 37.2 4.311 37.2 5.55556V7.33333C37.2 8.57789 37.2 9.20018 37.4398 9.67553C37.6508 10.0937 37.9872 10.4336 38.4012 10.6467C38.8718 10.8889 39.4878 10.8889 40.72 10.8889ZM36.32 42H38.08C39.3122 42 39.9282 42 40.3988 41.7578C40.8128 41.5447 41.1492 41.2049 41.3602 40.7867C41.6 40.3113 41.6 39.6891 41.6 38.4444V36.6667C41.6 35.422 41.6 34.7998 41.3602 34.3244C41.1492 33.9062 40.8128 33.5664 40.3988 33.3533C39.9282 33.1111 39.3122 33.1111 38.08 33.1111H36.32C35.0878 33.1111 34.4718 33.1111 34.0012 33.3533C33.5872 33.5664 33.2508 33.9062 33.0398 34.3244C32.8 34.7998 32.8 35.422 32.8 36.6667V38.4444C32.8 39.6891 32.8 40.3113 33.0398 40.7867C33.2508 41.2049 33.5872 41.5447 34.0012 41.7578C34.4718 42 35.0878 42 36.32 42Z" stroke="#FAF9F6" stroke-width="4" stroke-linecap="round" stroke-linejoin="round"/>
</svg>
