<svg width="36" height="33" viewBox="0 0 36 33" fill="none" xmlns="http://www.w3.org/2000/svg">
<path d="M15.9561 5.37096C16.6168 5.27415 17.2982 5.22222 18 5.22222C26.2973 5.22222 31.742 12.48 33.5711 15.351C33.7925 15.6985 33.9032 15.8722 33.9651 16.1402C34.0117 16.3415 34.0116 16.659 33.9651 16.8602C33.903 17.1282 33.7917 17.3031 33.5687 17.6529C33.0812 18.4174 32.3383 19.492 31.3538 20.6575M9.42461 7.98534C5.91054 10.3483 3.52488 13.6313 2.43048 15.3485C2.20809 15.6975 2.0969 15.872 2.03492 16.1399C1.98837 16.3411 1.98836 16.6585 2.03488 16.8599C2.09683 17.1279 2.20752 17.3015 2.42889 17.649C4.25805 20.52 9.70268 27.7778 18 27.7778C21.3455 27.7778 24.2274 26.5978 26.5954 25.0012M3.37205 2L32.6279 31M14.5522 13.0823C13.6698 13.957 13.124 15.1654 13.124 16.5C13.124 19.1695 15.3071 21.3333 18 21.3333C19.3464 21.3333 20.5654 20.7923 21.4478 19.9177" stroke="black" stroke-width="4" stroke-linecap="round" stroke-linejoin="round"/>
</svg>
