<svg width="36" height="39" viewBox="0 0 36 39" fill="none" xmlns="http://www.w3.org/2000/svg">
<path d="M18.0001 25.2435C11.9309 25.2435 6.53366 28.1738 3.09752 32.7215C2.35797 33.7002 1.98819 34.1896 2.00029 34.851C2.00963 35.362 2.3305 36.0066 2.73256 36.3221C3.25296 36.7305 3.97412 36.7305 5.41642 36.7305H30.5835C32.0259 36.7305 32.7471 36.7305 33.2674 36.3221C33.6695 36.0066 33.9903 35.362 33.9997 34.851C34.0118 34.1896 33.6419 33.7002 32.9025 32.7215C29.4664 28.1738 24.069 25.2435 18.0001 25.2435Z" stroke="#9E1316" stroke-width="4" stroke-linecap="round" stroke-linejoin="round"/>
<path d="M18.0001 19.5C22.758 19.5 26.6153 15.6428 26.6153 10.8848C26.6153 6.12671 22.758 2.26953 18.0001 2.26953C13.2419 2.26953 9.38473 6.12671 9.38473 10.8848C9.38473 15.6428 13.2419 19.5 18.0001 19.5Z" stroke="#9E1316" stroke-width="4" stroke-linecap="round" stroke-linejoin="round"/>
</svg>
