<svg width="68" height="62" viewBox="0 0 68 62" fill="none" xmlns="http://www.w3.org/2000/svg">
<path d="M11.5998 34C11.5998 23.3961 20.1959 14.8 30.7997 14.8M11.5998 34C11.5998 39.2749 13.7269 44.0528 17.1701 47.5232C17.5022 47.8576 17.6683 48.025 17.7663 48.1859C17.8598 48.3395 17.9142 48.4717 17.956 48.6467C17.9998 48.8298 17.9998 49.0384 17.9998 49.4554V57.04C17.9998 57.936 17.9998 58.384 18.1742 58.7264C18.3276 59.0275 18.5723 59.2723 18.8734 59.4256C19.2156 59.6 19.6637 59.6 20.5598 59.6H26.6398C27.5359 59.6 27.984 59.6 28.3261 59.4256C28.6272 59.2723 28.872 59.0275 29.0253 58.7264C29.1997 58.384 29.1997 57.936 29.1997 57.04V55.76C29.1997 54.864 29.1997 54.416 29.3741 54.0736C29.5277 53.7725 29.7725 53.5277 30.0733 53.3744C30.4157 53.2 30.8637 53.2 31.7597 53.2H36.2397C37.136 53.2 37.584 53.2 37.9261 53.3744C38.2272 53.5277 38.472 53.7725 38.6253 54.0736C38.7997 54.416 38.7997 54.864 38.7997 55.76V57.04C38.7997 57.936 38.7997 58.384 38.9741 58.7264C39.1277 59.0275 39.3725 59.2723 39.6733 59.4256C40.0157 59.6 40.4637 59.6 41.3597 59.6H47.44C48.336 59.6 48.784 59.6 49.1264 59.4256C49.4275 59.2723 49.6723 59.0275 49.8256 58.7264C50 58.384 50 57.936 50 57.04V53.9178C50 53.2714 50 52.9478 50.0922 52.6883C50.1802 52.4397 50.2915 52.2656 50.48 52.0806C50.6765 51.888 51.0096 51.7334 51.6758 51.424C54.8189 49.9648 57.5008 47.6803 59.4435 44.8486C59.7853 44.3507 59.9558 44.1018 60.1386 43.9546C60.313 43.8138 60.4694 43.7315 60.6838 43.6672C60.9085 43.6 61.175 43.6 61.7078 43.6H63.44C64.336 43.6 64.784 43.6 65.1264 43.4256C65.4275 43.2723 65.6723 43.0275 65.8256 42.7264C66 42.384 66 41.936 66 41.04V30.1142C66 29.2614 66 28.8349 65.8416 28.5056C65.6842 28.1792 65.4208 27.9158 65.0944 27.7584C64.7651 27.6 64.3386 27.6 63.4858 27.6C62.8682 27.6 62.5594 27.6 62.3107 27.5162C62.0426 27.4259 61.8544 27.3056 61.6598 27.1002C61.4797 26.9094 61.3322 26.5907 61.0378 25.9536C60.0922 23.9079 58.7974 22.0569 57.2298 20.4769C56.8976 20.1422 56.7315 19.9749 56.6336 19.814C56.5398 19.6604 56.4854 19.5283 56.4438 19.3534C56.4 19.1701 56.4 18.9616 56.4 18.5446V14.9939C56.4 13.8417 56.4 13.2656 56.16 12.8784C55.9498 12.5392 55.6205 12.2908 55.2368 12.1819C54.7984 12.0576 54.2445 12.2158 53.1366 12.5324L45.5446 14.7015C45.4154 14.7384 45.351 14.7568 45.2854 14.7697C45.2272 14.7812 45.1683 14.7895 45.1091 14.7944C45.0426 14.8 44.975 14.8 44.8397 14.8H30.7997M11.5998 34H8.4C4.86538 34 2 31.1347 2 27.6C2 25.231 3.28704 23.1628 5.2 22.0562M30.7997 14.8H43.4867C43.5613 14.2774 43.6 13.7432 43.6 13.2C43.6 7.0144 38.5856 2 32.4 2C26.2144 2 21.2 7.0144 21.2 13.2C21.2 14.535 21.4336 15.8156 21.8621 17.0028C24.5316 15.5962 27.5726 14.8 30.7997 14.8Z" stroke="#FAF9F6" stroke-width="4" stroke-linecap="round" stroke-linejoin="round"/>
</svg>
