<svg width="44" height="44" viewBox="0 0 44 44" fill="none" xmlns="http://www.w3.org/2000/svg">
<path d="M14 2H5.55556C4.311 2 3.68871 2 3.21336 2.2422C2.79522 2.45527 2.45527 2.79522 2.2422 3.21336C2 3.68871 2 4.311 2 5.55556V14C2 15.2446 2 15.8668 2.2422 16.3422C2.45527 16.7603 2.79522 17.1003 3.21336 17.3134C3.68871 17.5556 4.311 17.5556 5.55556 17.5556H14C15.2446 17.5556 15.8668 17.5556 16.3422 17.3134C16.7603 17.1003 17.1003 16.7603 17.3134 16.3422C17.5556 15.8668 17.5556 15.2446 17.5556 14V5.55556C17.5556 4.311 17.5556 3.68871 17.3134 3.21336C17.1003 2.79522 16.7603 2.45527 16.3422 2.2422C15.8668 2 15.2446 2 14 2Z" stroke="#DDB100" stroke-width="4" stroke-linecap="round" stroke-linejoin="round"/>
<path d="M38.4444 2H30C28.7553 2 28.1331 2 27.6578 2.2422C27.2396 2.45527 26.8998 2.79522 26.6867 3.21336C26.4444 3.68871 26.4444 4.311 26.4444 5.55556V14C26.4444 15.2446 26.4444 15.8668 26.6867 16.3422C26.8998 16.7603 27.2396 17.1003 27.6578 17.3134C28.1331 17.5556 28.7553 17.5556 30 17.5556H38.4444C39.6891 17.5556 40.3113 17.5556 40.7867 17.3134C41.2049 17.1003 41.5447 16.7603 41.7578 16.3422C42 15.8668 42 15.2446 42 14V5.55556C42 4.311 42 3.68871 41.7578 3.21336C41.5447 2.79522 41.2049 2.45527 40.7867 2.2422C40.3113 2 39.6891 2 38.4444 2Z" stroke="#DDB100" stroke-width="4" stroke-linecap="round" stroke-linejoin="round"/>
<path d="M38.4444 26.4444H30C28.7553 26.4444 28.1331 26.4444 27.6578 26.6867C27.2396 26.8998 26.8998 27.2396 26.6867 27.6578C26.4444 28.1331 26.4444 28.7553 26.4444 30V38.4444C26.4444 39.6891 26.4444 40.3113 26.6867 40.7867C26.8998 41.2049 27.2396 41.5447 27.6578 41.7578C28.1331 42 28.7553 42 30 42H38.4444C39.6891 42 40.3113 42 40.7867 41.7578C41.2049 41.5447 41.5447 41.2049 41.7578 40.7867C42 40.3113 42 39.6891 42 38.4444V30C42 28.7553 42 28.1331 41.7578 27.6578C41.5447 27.2396 41.2049 26.8998 40.7867 26.6867C40.3113 26.4444 39.6891 26.4444 38.4444 26.4444Z" stroke="#DDB100" stroke-width="4" stroke-linecap="round" stroke-linejoin="round"/>
<path d="M14 26.4444H5.55556C4.311 26.4444 3.68871 26.4444 3.21336 26.6867C2.79522 26.8998 2.45527 27.2396 2.2422 27.6578C2 28.1331 2 28.7553 2 30V38.4444C2 39.6891 2 40.3113 2.2422 40.7867C2.45527 41.2049 2.79522 41.5447 3.21336 41.7578C3.68871 42 4.311 42 5.55556 42H14C15.2446 42 15.8668 42 16.3422 41.7578C16.7603 41.5447 17.1003 41.2049 17.3134 40.7867C17.5556 40.3113 17.5556 39.6891 17.5556 38.4444V30C17.5556 28.7553 17.5556 28.1331 17.3134 27.6578C17.1003 27.2396 16.7603 26.8998 16.3422 26.6867C15.8668 26.4444 15.2446 26.4444 14 26.4444Z" stroke="#DDB100" stroke-width="4" stroke-linecap="round" stroke-linejoin="round"/>
</svg>
