<svg width="64" height="37" viewBox="0 0 64 37" fill="none" xmlns="http://www.w3.org/2000/svg">
<path d="M0 16.169C0.717685 15.8736 1.46012 15.5411 2.2273 15.1718C3.01923 14.7778 3.78641 14.3593 4.52884 13.916C5.27127 13.4482 5.97658 12.9681 6.64477 12.4756C7.33771 11.9585 7.9564 11.4168 8.50085 10.8505H12.3615V36.446H6.83038V18.0157C6.08795 18.5082 5.2589 18.9637 4.34323 19.3823C3.42756 19.7763 2.53664 20.121 1.67047 20.4165L0 16.169Z" fill="#FAF9F6"/>
<path d="M53.7173 37C53.0491 37 52.3438 36.9508 51.6014 36.8523C50.8589 36.7784 50.1413 36.6676 49.4483 36.5199C48.7554 36.3721 48.1243 36.2121 47.5551 36.0397C46.9859 35.8673 46.5405 35.7073 46.2187 35.5596L47.2953 30.9797C47.9387 31.2506 48.7554 31.546 49.7453 31.8661C50.7599 32.1616 52.0097 32.3093 53.4946 32.3093C55.2022 32.3093 56.4519 31.9892 57.2439 31.349C58.0358 30.7089 58.4318 29.847 58.4318 28.7636C58.4318 28.0988 58.2833 27.5448 57.9863 27.1016C57.7141 26.6338 57.3305 26.2644 56.8355 25.9936C56.3406 25.6981 55.7466 25.5011 55.0537 25.4026C54.3855 25.2795 53.6678 25.2179 52.9006 25.2179H50.7476V20.7858H53.1976C53.7421 20.7858 54.2618 20.7366 54.7567 20.6381C55.2764 20.5396 55.7342 20.3795 56.1302 20.1579C56.5262 19.9117 56.8355 19.5916 57.0583 19.1976C57.3057 18.7791 57.4295 18.262 57.4295 17.6464C57.4295 17.1786 57.3305 16.7723 57.1325 16.4276C56.9345 16.0828 56.6747 15.7997 56.3529 15.5781C56.056 15.3565 55.6971 15.1964 55.2764 15.0979C54.8805 14.9748 54.4721 14.9133 54.0514 14.9133C52.9873 14.9133 51.9973 15.0733 51.0817 15.3934C50.1908 15.7135 49.3741 16.1075 48.6316 16.5753L46.6642 12.5495C47.0602 12.3032 47.518 12.0447 48.0377 11.7738C48.5821 11.503 49.1761 11.2568 49.8195 11.0352C50.463 10.8136 51.1435 10.6289 51.8612 10.4811C52.6037 10.3334 53.3832 10.2595 54.1999 10.2595C55.7095 10.2595 57.0088 10.4442 58.0977 10.8136C59.2113 11.1583 60.127 11.663 60.8447 12.3279C61.5623 12.9681 62.0944 13.7314 62.4409 14.6178C62.7874 15.4796 62.9606 16.4276 62.9606 17.4617C62.9606 18.4713 62.676 19.4562 62.1068 20.4165C61.5376 21.3522 60.7704 22.0662 59.8053 22.5587C61.1416 23.1004 62.1687 23.9129 62.8863 24.9963C63.6288 26.0551 64 27.3355 64 28.8375C64 30.0194 63.802 31.1151 63.4061 32.1247C63.0101 33.1096 62.3914 33.9714 61.55 34.7101C60.7085 35.4241 59.632 35.9905 58.3204 36.409C57.0335 36.803 55.4991 37 53.7173 37Z" fill="#FAF9F6"/>
<path d="M39.7399 7.313C39.7399 8.24867 39.5542 9.1474 39.183 10.0092C38.8118 10.871 38.3292 11.7082 37.7353 12.5207C37.1413 13.3087 36.4732 14.072 35.7307 14.8107C34.9883 15.5494 34.2582 16.2511 33.5405 16.9159C33.1693 17.2606 32.761 17.6546 32.3155 18.0978C31.8948 18.5164 31.4865 18.9473 31.0905 19.3905C30.6946 19.8337 30.3357 20.2523 30.014 20.6463C29.717 21.0156 29.5314 21.3234 29.4572 21.5697H40.5194V26.1864H23.3692C23.3197 25.9156 23.295 25.5709 23.295 25.1523C23.295 24.7337 23.295 24.4382 23.295 24.2659C23.295 23.084 23.4806 22.0006 23.8518 21.0156C24.2478 20.0307 24.7551 19.1197 25.3738 18.2825C25.9925 17.4207 26.6854 16.6205 27.4526 15.8818C28.2445 15.1431 29.0241 14.4044 29.7913 13.6657C30.3852 13.0994 30.942 12.57 31.4617 12.0775C31.9814 11.5604 32.4393 11.068 32.8352 10.6002C33.2312 10.1077 33.5405 9.62755 33.7633 9.15972C33.986 8.66726 34.0974 8.1748 34.0974 7.68234C34.0974 6.59894 33.788 5.83563 33.1693 5.39241C32.5506 4.9492 31.7835 4.7276 30.8678 4.7276C30.1996 4.7276 29.5685 4.8384 28.9746 5.06001C28.4054 5.25699 27.8733 5.50322 27.3784 5.79869C26.9081 6.06954 26.4998 6.35271 26.1533 6.64818C25.8069 6.91903 25.547 7.14064 25.3738 7.313L22.6268 3.47183C23.7157 2.46229 24.9778 1.63742 26.4132 0.997227C27.8733 0.332409 29.4324 0 31.0905 0C32.6001 0 33.8994 0.17236 34.9883 0.517081C36.0772 0.861801 36.9681 1.35426 37.661 1.99445C38.3787 2.61003 38.8984 3.37334 39.2202 4.28438C39.5666 5.17081 39.7399 6.18035 39.7399 7.313Z" fill="#FAF9F6"/>
</svg>
