<svg width="44" height="39" viewBox="0 0 44 39" fill="none" xmlns="http://www.w3.org/2000/svg">
<path d="M36.3636 13.25L42 7.625M42 7.625L36.3636 2M42 7.625H30.7273M24.1515 10.4375C24.1515 14.0619 21.2075 17 17.5758 17C13.9441 17 11 14.0619 11 10.4375C11 6.81312 13.9441 3.875 17.5758 3.875C21.2075 3.875 24.1515 6.81312 24.1515 10.4375ZM18.0001 25C11.9309 25 6.53366 28.0612 3.09752 32.812C2.35797 33.8344 1.98819 34.3456 2.00029 35.0366C2.00963 35.5704 2.3305 36.2438 2.73256 36.5734C3.25296 37 3.97412 37 5.41642 37H30.5835C32.0259 37 32.7471 37 33.2674 36.5734C33.6695 36.2438 33.9903 35.5704 33.9997 35.0366C34.0118 34.3456 33.6419 33.8344 32.9025 32.812C29.4664 28.0612 24.069 25 18.0001 25Z" stroke="#224EFF" stroke-width="4" stroke-linecap="round" stroke-linejoin="round"/>
</svg>
