<svg width="36" height="28" viewBox="0 0 36 28" fill="none" xmlns="http://www.w3.org/2000/svg">
<path d="M2.42888 15.1592C2.20754 14.8086 2.09686 14.6334 2.0349 14.3631C1.98837 14.1601 1.98837 13.8399 2.0349 13.6369C2.09686 13.3666 2.20754 13.1914 2.42888 12.8408C4.25804 9.94454 9.70269 2.62268 18 2.62268C26.2973 2.62268 31.742 9.94454 33.5712 12.8408C33.7925 13.1914 33.9032 13.3666 33.9651 13.6369C34.0116 13.8399 34.0116 14.1601 33.9651 14.3631C33.9032 14.6334 33.7925 14.8086 33.5712 15.1592C31.742 18.0555 26.2973 25.3773 18 25.3773C9.70269 25.3773 4.25804 18.0555 2.42888 15.1592Z" stroke="black" stroke-width="4" stroke-linecap="round" stroke-linejoin="round"/>
<path d="M18 18.876C20.693 18.876 22.876 16.693 22.876 14C22.876 11.307 20.693 9.124 18 9.124C15.307 9.124 13.124 11.307 13.124 14C13.124 16.693 15.307 18.876 18 18.876Z" stroke="black" stroke-width="4" stroke-linecap="round" stroke-linejoin="round"/>
</svg>
