<svg width="64" height="40" viewBox="0 0 64 40" fill="none" xmlns="http://www.w3.org/2000/svg">
<path d="M8.84083 35.5796C9.39026 35.5796 9.91471 35.5671 10.4142 35.5421C10.9137 35.5172 11.3133 35.4797 11.613 35.4298V31.1967C11.3882 31.1467 11.051 31.0968 10.6015 31.0468C10.152 30.9969 9.73989 30.9719 9.36528 30.9719C8.84083 30.9719 8.34134 31.0094 7.86684 31.0843C7.4173 31.1342 7.01772 31.2466 6.66808 31.4214C6.31844 31.5963 6.04373 31.8335 5.84394 32.1332C5.64414 32.4329 5.54425 32.8075 5.54425 33.257C5.54425 34.1311 5.83145 34.743 6.40585 35.0926C7.00523 35.4173 7.81689 35.5796 8.84083 35.5796ZM8.39129 19.2466C10.0396 19.2466 11.4132 19.4339 12.512 19.8085C13.6109 20.1831 14.485 20.7201 15.1343 21.4194C15.8086 22.1186 16.2831 22.9677 16.5578 23.9667C16.8325 24.9657 16.9699 26.077 16.9699 27.3007V38.9136C16.1707 39.0884 15.0594 39.2882 13.6359 39.513C12.2123 39.7627 10.4891 39.8876 8.46622 39.8876C7.19254 39.8876 6.03124 39.7752 4.98233 39.5505C3.95839 39.3257 3.07181 38.9636 2.32259 38.4641C1.57337 37.9396 0.998964 37.2653 0.599378 36.4412C0.199793 35.6171 0 34.6056 0 33.4069C0 32.2581 0.224767 31.2841 0.6743 30.4849C1.14881 29.6857 1.77316 29.0489 2.54736 28.5744C3.32155 28.0999 4.20813 27.7627 5.2071 27.563C6.20606 27.3382 7.24249 27.2258 8.31637 27.2258C9.04062 27.2258 9.67746 27.2633 10.2269 27.3382C10.8013 27.3881 11.2633 27.4631 11.613 27.563V27.0385C11.613 26.0895 11.3257 25.3278 10.7513 24.7534C10.1769 24.179 9.17798 23.8918 7.75445 23.8918C6.80544 23.8918 5.86891 23.9667 4.94487 24.1165C4.02083 24.2414 3.22166 24.4287 2.54736 24.6785L1.8356 20.1831C2.16026 20.0832 2.55984 19.9834 3.03435 19.8835C3.53383 19.7586 4.07078 19.6587 4.64518 19.5838C5.21958 19.4839 5.81896 19.4089 6.44331 19.359C7.09264 19.2841 7.74197 19.2466 8.39129 19.2466Z" fill="#DDB100"/>
<path d="M48.079 29.6233C48.079 28.1998 48.3038 26.8637 48.7533 25.615C49.2278 24.3413 49.9021 23.2425 50.7762 22.3184C51.6503 21.3694 52.7117 20.6202 53.9604 20.0708C55.2091 19.5213 56.6326 19.2466 58.231 19.2466C59.2799 19.2466 60.2414 19.3465 61.1155 19.5463C61.9896 19.7211 62.8387 19.9833 63.6629 20.333L62.5016 24.7908C61.9771 24.591 61.4027 24.4162 60.7783 24.2664C60.154 24.1165 59.4547 24.0416 58.6805 24.0416C57.0322 24.0416 55.796 24.5536 54.9719 25.5775C54.1727 26.6015 53.7731 27.9501 53.7731 29.6233C53.7731 31.3965 54.1477 32.77 54.8969 33.744C55.6711 34.718 57.0073 35.205 58.9053 35.205C59.5796 35.205 60.3038 35.1426 61.078 35.0177C61.8522 34.8928 62.564 34.693 63.2133 34.4183L64 38.9886C63.3507 39.2633 62.539 39.5005 61.565 39.7003C60.591 39.9001 59.5172 40 58.3434 40C56.5452 40 54.9968 39.7378 53.6982 39.2133C52.3995 38.6639 51.3257 37.9272 50.4765 37.0031C49.6524 36.0791 49.0405 34.9927 48.6409 33.744C48.2663 32.4703 48.079 31.0968 48.079 29.6233Z" fill="#DDB100"/>
<path d="M35.8488 19.0676C35.8488 15.4714 34.5252 13.6733 31.878 13.6733C31.3036 13.6733 30.7292 13.7482 30.1547 13.898C29.6053 14.0479 29.1558 14.2352 28.8061 14.4599V24.6119C29.0809 24.6618 29.4305 24.7118 29.8551 24.7617C30.2796 24.7867 30.7416 24.7992 31.2411 24.7992C32.7645 24.7992 33.9133 24.2747 34.6875 23.2258C35.4617 22.1769 35.8488 20.7908 35.8488 19.0676ZM41.5429 19.2175C41.5429 20.7908 41.3057 22.2144 40.8312 23.488C40.3816 24.7617 39.7198 25.8481 38.8457 26.7471C37.9716 27.6462 36.8978 28.3455 35.6241 28.845C34.3504 29.3195 32.9019 29.5567 31.2786 29.5567C30.6043 29.5567 29.8925 29.5193 29.1433 29.4443C28.419 29.3944 27.6948 29.3195 26.9706 29.2196C26.2713 29.1197 25.597 29.0073 24.9476 28.8824C24.2983 28.7326 23.7239 28.5827 23.2244 28.4329V0.899063L28.8061 0V9.81478C29.4305 9.54006 30.0798 9.32778 30.7541 9.17794C31.4284 9.0281 32.1527 8.95317 32.9269 8.95317C34.3254 8.95317 35.5616 9.20291 36.6355 9.70239C37.7094 10.1769 38.6085 10.8637 39.3327 11.7627C40.057 12.6618 40.6064 13.7482 40.981 15.0219C41.3556 16.2705 41.5429 17.6691 41.5429 19.2175Z" fill="#DDB100"/>
</svg>
